<svg width="194" height="58" viewBox="0 0 194 58" fill="none" xmlns="http://www.w3.org/2000/svg">
<g clip-path="url(#clip0_230_2358)">
<path d="M59.8416 45.3765C59.8629 45.6406 59.8224 45.9061 59.7233 46.1519C59.6242 46.3977 59.4693 46.617 59.2708 46.7924C58.7701 47.132 58.1703 47.2941 57.5669 47.2529H55.6841V40.8047H59.4838V41.4785H56.4338V43.5597H57.4306C57.9012 43.5464 58.3707 43.6127 58.8193 43.7559C59.136 43.8598 59.4109 44.0632 59.6031 44.3359C59.7825 44.6519 59.8654 45.0137 59.8416 45.3765ZM56.4338 46.6047H57.4817C57.9072 46.64 58.333 46.5416 58.7 46.3232C58.8345 46.2073 58.9394 46.061 59.0061 45.8963C59.0728 45.7316 59.0993 45.5534 59.0834 45.3765C59.0947 45.2137 59.0656 45.0506 58.9987 44.9018C58.9319 44.753 58.8292 44.623 58.7 44.5235C58.2812 44.3127 57.8126 44.2212 57.3454 44.2591H56.4338V46.6047Z" fill="white"/>
<path d="M61.5967 47.3382C61.3077 47.3424 61.0199 47.2992 60.7447 47.2103V46.4768C61.0112 46.6021 61.3023 46.6662 61.5967 46.6644C61.8728 46.6807 62.1462 46.6025 62.372 46.4426C62.6313 46.2077 62.8325 45.9158 62.9598 45.5897L60.4551 40.7877H61.307L63.2069 44.4553C63.2818 44.5895 63.3391 44.7328 63.3773 44.8818C63.4217 44.7212 63.4787 44.5643 63.5477 44.4127L65.1238 40.7877H65.9162L63.8629 45.4021C63.6867 45.8264 63.4639 46.2298 63.1984 46.6047C63.0188 46.8359 62.7885 47.0227 62.5253 47.1506C62.234 47.2827 61.9165 47.3469 61.5967 47.3382Z" fill="white"/>
<path d="M71.8716 48.9332H71.156V47.2273H66.6832V48.9332H65.9761V46.5791H66.4702C66.9674 45.7026 67.3565 44.7689 67.6289 43.7985C67.9315 42.8268 68.1118 41.8211 68.1656 40.8047H71.0623V46.5791H71.9142L71.8716 48.9332ZM70.3126 46.5791V41.4615H68.8898C68.8014 42.331 68.6215 43.1887 68.353 44.0203C68.1025 44.9118 67.7479 45.7707 67.2966 46.5791H70.3126Z" fill="white"/>
<path d="M72.9536 47.2529V40.8047H73.7033V47.2529H72.9536Z" fill="white"/>
<path d="M75.4668 40.8047H77.29C77.9324 40.7609 78.5746 40.8936 79.1473 41.1885C79.3384 41.3262 79.4913 41.5105 79.5912 41.724C79.6911 41.9375 79.7348 42.1731 79.7181 42.4082C79.7292 42.7502 79.6139 43.0843 79.3943 43.3465C79.1528 43.6145 78.8233 43.7869 78.4657 43.8326V43.8753C79.4455 44.0459 79.9311 44.5576 79.9311 45.4191C79.9407 45.6727 79.8937 45.9253 79.7935 46.1585C79.6933 46.3916 79.5424 46.5994 79.3517 46.7668C78.8805 47.1161 78.3013 47.2883 77.716 47.2529H75.4668V40.8047ZM76.2165 43.5682H77.4519C77.8483 43.5987 78.2451 43.5127 78.5935 43.3209C78.7177 43.2187 78.8146 43.0873 78.8755 42.9385C78.9365 42.7896 78.9596 42.6279 78.9428 42.4679C78.953 42.3153 78.922 42.1626 78.8531 42.0261C78.7841 41.8895 78.6798 41.774 78.5509 41.6918C78.1688 41.4996 77.7421 41.4141 77.3156 41.4444H76.2165V43.5682ZM76.2165 44.1994V46.6132H77.5626C77.9762 46.6407 78.3878 46.5362 78.7383 46.3147C78.8744 46.1996 78.9809 46.0536 79.0491 45.8889C79.1173 45.7242 79.1451 45.5456 79.1302 45.3679C79.1381 45.2038 79.1057 45.0403 79.0359 44.8916C78.9661 44.743 78.861 44.6137 78.7298 44.515C78.3601 44.2951 77.9319 44.1939 77.503 44.225L76.2165 44.1994Z" fill="white"/>
<path d="M86.2012 47.2529H85.4515V44.225H82.0437V47.2529H81.2939V40.8047H82.0437V43.5512H85.4515V40.8047H86.2012V47.2529Z" fill="white"/>
<path d="M87.9736 40.8047H88.6808V44.3956C88.6808 45.0524 88.6808 45.6494 88.6126 46.1868L92.2249 40.8047H93.0769V47.2529H92.3783V43.7047C92.3783 43.1162 92.3783 42.4935 92.4464 41.8453L88.8256 47.2529H87.9736V40.8047Z" fill="white"/>
<path d="M99.6452 46.5791H100.412V48.9332H99.7048V47.2273H94.8486V40.7791H95.5984V46.5535H98.904V40.7791H99.6537L99.6452 46.5791Z" fill="white"/>
<path d="M103.471 47.2529H102.721V41.4785H100.676V40.8047H105.524V41.4785H103.488L103.471 47.2529Z" fill="white"/>
<path d="M106.478 40.8047H108.293C108.935 40.7609 109.577 40.8936 110.15 41.1885C110.343 41.3244 110.497 41.5085 110.597 41.7224C110.697 41.9363 110.74 42.1728 110.721 42.4082C110.732 42.7502 110.617 43.0843 110.397 43.3465C110.156 43.6145 109.826 43.7869 109.468 43.8326V43.8753C110.448 44.0459 110.934 44.5576 110.934 45.4191C110.943 45.6727 110.896 45.9253 110.796 46.1585C110.696 46.3916 110.545 46.5994 110.354 46.7668C109.883 47.1161 109.304 47.2883 108.719 47.2529H106.478V40.8047ZM107.219 43.5682H108.455C108.851 43.5987 109.248 43.5127 109.596 43.3209C109.72 43.2187 109.817 43.0873 109.878 42.9385C109.939 42.7896 109.962 42.6279 109.946 42.4679C109.956 42.3153 109.925 42.1626 109.856 42.0261C109.787 41.8895 109.682 41.774 109.554 41.6918C109.174 41.5003 108.751 41.4148 108.327 41.4444H107.228L107.219 43.5682ZM107.219 44.1994V46.6132H108.565C108.979 46.6407 109.391 46.5362 109.741 46.3147C109.877 46.1996 109.984 46.0536 110.052 45.8889C110.12 45.7242 110.148 45.5456 110.133 45.3679C110.141 45.2038 110.108 45.0403 110.039 44.8916C109.969 44.743 109.864 44.6137 109.733 44.515C109.363 44.2951 108.935 44.1939 108.506 44.225L107.219 44.1994Z" fill="white"/>
<path d="M117.903 44.0203C117.953 44.9013 117.677 45.7699 117.128 46.4597C116.538 47.0213 115.756 47.3346 114.942 47.3346C114.129 47.3346 113.346 47.0213 112.757 46.4597C112.255 45.7424 111.985 44.8877 111.985 44.0118C111.985 43.1358 112.255 42.2811 112.757 41.5638C113.04 41.2692 113.385 41.0403 113.766 40.8929C114.147 40.7456 114.556 40.6834 114.964 40.7109C115.365 40.6857 115.766 40.749 116.14 40.8964C116.514 41.0438 116.851 41.2716 117.128 41.5638C117.685 42.2561 117.962 43.133 117.903 44.0203ZM112.791 44.0203C112.741 44.7282 112.94 45.4313 113.353 46.0076C113.553 46.2376 113.803 46.4181 114.084 46.535C114.365 46.6519 114.669 46.702 114.972 46.6815C115.274 46.7034 115.578 46.6538 115.857 46.5367C116.137 46.4197 116.385 46.2385 116.582 46.0076C116.987 45.4279 117.18 44.7258 117.128 44.0203C117.175 43.3218 116.986 42.6277 116.591 42.05C116.393 41.8202 116.145 41.6397 115.865 41.5228C115.586 41.4058 115.283 41.3556 114.981 41.3762C114.675 41.356 114.369 41.4071 114.087 41.5255C113.804 41.6439 113.553 41.8264 113.353 42.0585C112.935 42.6234 112.73 43.3184 112.774 44.0203H112.791Z" fill="white"/>
<path d="M121.711 47.2529V40.8047H122.461V47.2529H121.711Z" fill="white"/>
<path d="M130.128 40.8047V41.4871H127.291V47.2529H126.542V40.8047H130.128Z" fill="white"/>
<path d="M131.228 47.2529V40.8047H131.977V47.2529H131.228Z" fill="white"/>
<path d="M138.827 48.9332H138.111V47.2273H133.638V48.9332H132.923V46.5791H133.417C133.917 45.703 134.309 44.7693 134.584 43.7985C134.88 42.8256 135.058 41.8203 135.112 40.8047H138.009V46.5791H138.861L138.827 48.9332ZM137.259 46.5791V41.4615H135.794C135.71 42.3316 135.53 43.1898 135.257 44.0203C135.01 44.9131 134.656 45.7724 134.201 46.5791H137.259Z" fill="white"/>
<path d="M143.99 42.6897C144.006 42.9748 143.954 43.2596 143.839 43.5206C143.723 43.7816 143.547 44.0114 143.326 44.1909C142.763 44.576 142.089 44.7621 141.409 44.7197H140.659V47.2785H139.909V40.8303H141.613C143.181 40.8047 143.99 41.4359 143.99 42.6897ZM140.659 44.08H141.306C141.808 44.116 142.309 44.0033 142.746 43.7559C142.898 43.6325 143.017 43.4741 143.094 43.2944C143.172 43.1146 143.204 42.9189 143.189 42.7238C143.202 42.5426 143.171 42.3609 143.099 42.1944C143.026 42.028 142.914 41.8818 142.772 41.7685C142.38 41.5315 141.925 41.4213 141.468 41.4529H140.616L140.659 44.08Z" fill="white"/>
<path d="M150.925 44.0203C150.973 44.9024 150.694 45.7711 150.141 46.4597C149.552 47.0213 148.769 47.3346 147.956 47.3346C147.142 47.3346 146.36 47.0213 145.771 46.4597C145.221 45.7639 144.947 44.8888 145.004 44.0032C144.948 43.1215 145.224 42.2509 145.779 41.5638C146.06 41.2685 146.403 41.0389 146.783 40.8915C147.163 40.744 147.571 40.6824 147.977 40.7109C148.378 40.6845 148.78 40.7473 149.155 40.8948C149.529 41.0422 149.866 41.2707 150.141 41.5638C150.701 42.2553 150.981 43.132 150.925 44.0203ZM145.813 44.0203C145.765 44.7267 145.96 45.4284 146.367 46.0077C146.567 46.2371 146.817 46.4172 147.098 46.5341C147.378 46.6509 147.682 46.7014 147.986 46.6815C148.289 46.7027 148.594 46.6529 148.875 46.5359C149.156 46.4189 149.405 46.2381 149.604 46.0077C150.006 45.4261 150.198 44.7254 150.15 44.0203C150.199 43.3204 150.006 42.6248 149.604 42.05C149.408 41.8192 149.159 41.638 148.88 41.5209C148.6 41.4039 148.297 41.3543 147.994 41.3762C147.689 41.3573 147.383 41.409 147.101 41.5273C146.819 41.6457 146.568 41.8274 146.367 42.0585C145.955 42.6262 145.753 43.3198 145.796 44.0203H145.813Z" fill="white"/>
<path d="M152.382 47.2529V40.8047H153.132V47.2529H152.382Z" fill="white"/>
<path d="M158.609 42.3144C158.617 42.5055 158.585 42.6962 158.514 42.874C158.444 43.0518 158.337 43.2127 158.2 43.3465C157.896 43.6301 157.507 43.8068 157.093 43.8497C157.543 43.8878 157.969 44.0669 158.311 44.3615C158.45 44.4938 158.559 44.6543 158.631 44.8323C158.703 45.0103 158.736 45.2017 158.729 45.3935C158.742 45.6657 158.688 45.9369 158.57 46.1826C158.453 46.4284 158.276 46.6409 158.056 46.8009C157.494 47.171 156.827 47.3476 156.156 47.3041C155.525 47.3284 154.896 47.2118 154.315 46.9629V46.2635C154.607 46.4017 154.913 46.5075 155.227 46.5791C155.538 46.6487 155.854 46.6858 156.173 46.69C156.637 46.7213 157.099 46.6048 157.493 46.3574C157.64 46.2474 157.758 46.1025 157.835 45.9357C157.913 45.769 157.947 45.5856 157.936 45.4021C157.943 45.2219 157.901 45.0432 157.814 44.8854C157.727 44.7275 157.598 44.5965 157.442 44.5065C156.985 44.2814 156.477 44.1786 155.968 44.2079H155.006V43.5768H155.926C156.413 43.6044 156.898 43.492 157.323 43.2527C157.478 43.1592 157.605 43.0262 157.692 42.8674C157.779 42.7086 157.822 42.5295 157.817 42.3485C157.822 42.2027 157.792 42.0578 157.729 41.9258C157.667 41.7938 157.575 41.6785 157.459 41.5894C157.182 41.3896 156.846 41.2903 156.505 41.3079C156.217 41.305 155.93 41.3424 155.653 41.4188C155.332 41.5238 155.025 41.67 154.741 41.8538L154.375 41.3506C154.676 41.1289 155.013 40.9615 155.372 40.8559C155.744 40.7385 156.132 40.6809 156.522 40.6853C157.073 40.6542 157.618 40.8072 158.073 41.1203C158.254 41.2594 158.398 41.4413 158.491 41.6497C158.585 41.8581 158.625 42.0865 158.609 42.3144Z" fill="white"/>
<path d="M165.698 44.0203C165.748 44.9013 165.472 45.7699 164.922 46.4597C164.333 47.0213 163.551 47.3346 162.737 47.3346C161.924 47.3346 161.141 47.0213 160.552 46.4597C160.05 45.7424 159.78 44.8877 159.78 44.0118C159.78 43.1358 160.05 42.2811 160.552 41.5638C160.835 41.2692 161.18 41.0403 161.561 40.8929C161.942 40.7456 162.351 40.6834 162.758 40.7109C163.16 40.6857 163.561 40.749 163.935 40.8964C164.309 41.0438 164.646 41.2716 164.922 41.5638C165.48 42.2561 165.757 43.133 165.698 44.0203ZM160.586 44.0203C160.536 44.7282 160.735 45.4313 161.148 46.0076C161.348 46.2376 161.598 46.4181 161.879 46.535C162.159 46.6519 162.464 46.702 162.767 46.6815C163.069 46.7034 163.373 46.6538 163.652 46.5367C163.932 46.4197 164.18 46.2385 164.377 46.0076C164.782 45.4279 164.975 44.7258 164.922 44.0203C164.97 43.3218 164.781 42.6277 164.386 42.05C164.188 41.8202 163.94 41.6397 163.66 41.5228C163.381 41.4058 163.078 41.3556 162.776 41.3762C162.47 41.356 162.164 41.4071 161.882 41.5255C161.599 41.6439 161.348 41.8264 161.148 42.0585C160.73 42.6234 160.525 43.3184 160.569 44.0203H160.586Z" fill="white"/>
<path d="M171.713 47.2529H170.971V41.4785H168.876L168.739 42.5362C168.56 43.9435 168.407 44.9671 168.262 45.6238C168.193 46.112 168.009 46.5767 167.725 46.98C167.62 47.1021 167.489 47.1991 167.342 47.2641C167.194 47.329 167.034 47.3602 166.873 47.3553C166.672 47.3605 166.472 47.3227 166.286 47.2444V46.6132C166.439 46.6897 166.608 46.7305 166.78 46.7326C166.858 46.7324 166.936 46.7147 167.006 46.6807C167.077 46.6468 167.139 46.5975 167.189 46.5365C167.341 46.3412 167.446 46.1136 167.495 45.8712C167.642 45.2781 167.756 44.6773 167.836 44.0715C167.973 43.2185 168.126 42.1012 168.288 40.8047H171.747L171.713 47.2529Z" fill="white"/>
<path d="M175.384 44.5662L173.681 47.2529H172.829L174.635 44.4382C174.225 44.3322 173.862 44.092 173.604 43.7559C173.379 43.4149 173.266 43.0125 173.28 42.6044C173.265 42.3509 173.311 42.0973 173.415 41.8656C173.518 41.6338 173.677 41.4307 173.877 41.2738C174.411 40.9246 175.046 40.7599 175.683 40.8047H177.455V47.2529H176.705V44.5662H175.384ZM176.688 41.4529H175.691C175.264 41.426 174.838 41.5238 174.464 41.7344C174.322 41.8353 174.208 41.9719 174.135 42.1306C174.062 42.2893 174.031 42.4644 174.047 42.6385C174.047 43.4915 174.601 43.9179 175.751 43.9179H176.722L176.688 41.4529Z" fill="white"/>
<path d="M184.032 46.5791H184.756V48.9332H184.041V47.2273H179.193V40.7791H179.943V46.5535H183.248V40.7791H183.998L184.032 46.5791Z" fill="white"/>
<path d="M185.872 47.2529V40.8047H186.622V47.2529H185.872Z" fill="white"/>
<path d="M190.294 44.5662L188.59 47.2529H187.738L189.544 44.4382C189.136 44.3298 188.773 44.0901 188.514 43.7559C188.288 43.4299 188.167 43.0434 188.164 42.6471C188.149 42.3935 188.195 42.14 188.299 41.9082C188.403 41.6764 188.561 41.4734 188.761 41.3165C189.295 40.9661 189.93 40.8013 190.567 40.8473H192.339V47.2956H191.572V44.6088L190.294 44.5662ZM191.572 41.4529H190.567C190.142 41.4247 189.718 41.5226 189.348 41.7344C189.206 41.8353 189.092 41.9719 189.019 42.1306C188.946 42.2893 188.915 42.4644 188.931 42.6385C188.931 43.4915 189.485 43.9179 190.592 43.9179H191.572V41.4529Z" fill="white"/>
<path d="M66.9384 19.5153C68.3234 19.497 69.7054 19.6488 71.0534 19.9674C72.1122 20.2305 73.1121 20.6906 74.0012 21.3235C74.752 21.8462 75.3658 22.5426 75.7903 23.3535C76.1883 24.1652 76.3896 25.0594 76.3782 25.9635C76.4017 26.8732 76.1964 27.7741 75.781 28.5835C75.3656 29.3928 74.7536 30.0845 74.0012 30.595C73.1089 31.2129 72.1092 31.6584 71.0534 31.9085C69.7061 32.2314 68.3236 32.3832 66.9384 32.3606H55.667V11.0371H73.9415V13.3229H60.0801V19.575L66.9384 19.5153ZM60.1227 21.8012V30.0321H66.9384C68.1849 30.106 69.4152 29.7207 70.3974 28.9488C70.7979 28.5522 71.1159 28.08 71.333 27.5595C71.55 27.039 71.6617 26.4806 71.6617 25.9166C71.6617 25.3526 71.55 24.7942 71.333 24.2737C71.1159 23.7532 70.7979 23.281 70.3974 22.8844C69.4152 22.1125 68.1849 21.7272 66.9384 21.8012H60.1227Z" fill="white"/>
<path d="M83.9947 12.6491C84.002 13.244 83.7791 13.8186 83.3727 14.2526C82.9297 14.6892 82.333 14.9338 81.7114 14.9338C81.0898 14.9338 80.4931 14.6892 80.0501 14.2526C79.6495 13.8166 79.4272 13.2458 79.4272 12.6534C79.4272 12.061 79.6495 11.4902 80.0501 11.0541C80.2664 10.8354 80.5238 10.6618 80.8075 10.5434C81.0912 10.4249 81.3955 10.3639 81.7029 10.3639C82.0103 10.3639 82.3146 10.4249 82.5983 10.5434C82.882 10.6618 83.1394 10.8354 83.3557 11.0541C83.7701 11.4808 83.9997 12.054 83.9947 12.6491ZM83.8413 32.3179H79.5815V16.7688H83.8413V32.3179Z" fill="white"/>
<path d="M92.523 13.2632V32.3179H88.1099V10.9944H105.78V13.2803L92.523 13.2632Z" fill="white"/>
<path d="M127.445 21.4941L135.521 32.3179H130.495L123.492 22.8674H118.158V32.3179H113.745V10.9944H118.158V20.5985H123.185L130.231 10.9774H135.104L127.445 21.4941Z" fill="white"/>
<path d="M155.474 32.3179V14.935H155.168L143.743 32.3179H137.958V10.9944H142.371V28.3774H142.678L154.086 10.9774H159.87V32.3009L155.474 32.3179Z" fill="white"/>
<path d="M165.681 6.55058C165.685 7.14647 165.459 7.72094 165.051 8.15411C164.835 8.38781 164.571 8.57037 164.276 8.68844C163.981 8.8065 163.663 8.85707 163.347 8.83646C163.038 8.85178 162.73 8.79854 162.444 8.68058C162.158 8.56261 161.902 8.38282 161.694 8.15411C161.289 7.71849 161.064 7.14557 161.064 6.55058C161.064 5.95559 161.289 5.38267 161.694 4.94705C161.903 4.7202 162.16 4.54167 162.445 4.42385C162.731 4.30603 163.038 4.25173 163.347 4.2647C163.653 4.25466 163.959 4.31034 164.242 4.42801C164.526 4.54569 164.781 4.72265 164.991 4.94705C165.206 5.15517 165.378 5.40412 165.497 5.67941C165.615 5.9547 165.678 6.25084 165.681 6.55058ZM168.876 32.3179H164.463V10.9944H168.876V32.3179ZM172.071 6.55058C172.078 7.14545 171.855 7.72008 171.449 8.15411C171.006 8.59062 170.409 8.83528 169.787 8.83528C169.166 8.83528 168.569 8.59062 168.126 8.15411C167.727 7.71574 167.505 7.14386 167.505 6.55058C167.505 5.9573 167.727 5.38542 168.126 4.94705C168.565 4.50953 169.159 4.26391 169.779 4.26391C170.398 4.26391 170.993 4.50953 171.432 4.94705C171.845 5.37789 172.074 5.95317 172.071 6.55058Z" fill="white"/>
<path d="M173.289 10.9773H183.649C185.015 10.9562 186.378 11.0936 187.713 11.3868C188.725 11.6024 189.691 11.9951 190.567 12.5468C191.278 12.985 191.865 13.5988 192.271 14.3294C192.642 15.0335 192.832 15.8191 192.825 16.6153C192.847 17.6284 192.522 18.6188 191.904 19.4215C191.199 20.2813 190.243 20.8986 189.17 21.187C190.516 21.4072 191.764 22.0319 192.748 22.9782C193.182 23.43 193.521 23.9652 193.744 24.5515C193.966 25.1379 194.068 25.7633 194.043 26.39C194.065 27.2491 193.868 28.0997 193.47 28.861C193.072 29.6224 192.486 30.2692 191.768 30.74C190.263 31.809 187.872 32.3407 184.595 32.335H173.289V10.9773ZM183.649 20.2744C186.597 20.2744 188.071 19.0547 188.071 16.6153C188.096 16.1424 188.008 15.6704 187.813 15.2386C187.619 14.8068 187.325 14.4278 186.955 14.1332C185.977 13.4917 184.815 13.1918 183.649 13.2803H177.685V20.2915L183.649 20.2744ZM177.685 22.5603V30.0321H184.501C185.739 30.1142 186.97 29.7941 188.011 29.1194C188.422 28.7956 188.748 28.3761 188.96 27.8974C189.173 27.4188 189.265 26.8954 189.229 26.3729C189.271 25.8299 189.182 25.2849 188.97 24.7833C188.758 24.2818 188.429 23.8383 188.011 23.49C186.972 22.8093 185.74 22.4832 184.501 22.5603H177.685Z" fill="white"/>
<path d="M0 0V35.5335C0 47.8415 18.8624 56.7974 21.0094 57.7782C21.3295 57.9272 21.6787 58.003 22.0317 58C22.3794 58.0043 22.7233 57.9284 23.037 57.7782C23.889 57.3944 44.0549 48.1656 44.0549 35.5335V0H0ZM40.6982 3.36059V35.5335C40.6982 45.1376 24.4257 53.3771 22.0232 54.5371C19.6207 53.3856 3.36525 45.1974 3.36525 35.5335V3.36059H40.6982Z" fill="white"/>
<path d="M38.3554 12.6918H33.9592V22.4494H31.6334V16.4788H26.675V22.4494H22.8241V15.2591H17.4568V12.0094H11.9787V18.3382H7.19916V22.4494H5.69971V35.2862C6.18532 44.3188 21.1117 51.1679 21.7506 51.4921C21.8332 51.5303 21.9239 51.5478 22.0148 51.5432C22.1029 51.5478 22.1908 51.5302 22.2703 51.4921C22.9178 51.2021 37.8442 44.3529 38.3298 35.2862L38.3554 12.6918Z" fill="white"/>
</g>
<defs>
<clipPath id="clip0_230_2358">
<rect width="194" height="58" fill="white"/>
</clipPath>
</defs>
</svg>
